<svg width="70" height="71" viewBox="0 0 70 71" fill="none" xmlns="http://www.w3.org/2000/svg">
<path d="M35 70.6942C54.33 70.6942 70 55.0242 70 35.6942C70 16.3642 54.33 0.694214 35 0.694214C15.67 0.694214 0 16.3642 0 35.6942C0 55.0242 15.67 70.6942 35 70.6942Z" fill="#6C63FF"/>
<path d="M29.3363 49.4486C29.2607 49.4486 29.1843 49.4467 29.1077 49.4431C28.4365 49.4105 27.7802 49.2332 27.1839 48.9232C26.5876 48.6133 26.0654 48.1781 25.653 47.6474L20.1367 40.5558C19.3781 39.5787 19.0382 38.3406 19.1915 37.1132C19.3448 35.8857 19.9788 34.7693 20.9544 34.0087L21.152 33.8548C22.1293 33.0963 23.3676 32.7564 24.5953 32.9095C25.8229 33.0626 26.9398 33.6963 27.7009 34.6716C27.9485 34.9903 28.262 35.2516 28.6201 35.4377C28.9781 35.6238 29.3721 35.7303 29.7752 35.7498C30.1787 35.7734 30.5824 35.7076 30.9575 35.5571C31.3326 35.4066 31.6698 35.1752 31.9451 34.8793L43.1453 23.0561C43.9971 22.1593 45.1697 21.6369 46.4061 21.6034C47.6425 21.5699 48.8417 22.0282 49.7407 22.8777L49.9229 23.0498C50.8202 23.9014 51.343 25.0742 51.3767 26.3108C51.4103 27.5475 50.952 28.747 50.1022 29.6461L32.7219 47.9916C32.2864 48.452 31.7615 48.8187 31.1793 49.0692C30.5972 49.3198 29.97 49.4488 29.3363 49.4486Z" fill="white"/>
</svg>
